<svg width="418.71" xmlns="http://www.w3.org/2000/svg" height="74" id="screenshot-7a8b0d6c-73ab-805d-8005-c1d2a59014a4" viewBox="0 0 418.71 74" xmlns:xlink="http://www.w3.org/1999/xlink" fill="none" version="1.1"><g id="shape-7a8b0d6c-73ab-805d-8005-c1d2a59014a4"><g><g><g fill="none"><g class="fills" id="fills-7a8b0d6c-73ab-805d-8005-c1d2a59014a4"><rect rx="0" ry="0" x="0" y="0" width="418.71000000000004" height="74" transform="matrix(1.000000, 0.000000, 0.000000, 1.000000, 0.000000, 0.000000)" class="frame-background"/></g><g class="frame-children"><g id="shape-73cfb2cc-c7be-806c-8005-c318b11f421d"><g class="fills" id="fills-73cfb2cc-c7be-806c-8005-c318b11f421d"><path d="M93.969,0.000C87.920,0.000,83.052,4.861,83.052,10.899L83.052,63.101C83.052,69.139,87.920,74.000,93.969,74.000C100.016,74.000,104.884,69.139,104.884,63.101L104.884,10.899C104.884,4.861,100.016,0.000,93.969,0.000ZL93.969,0.000ZL93.969,0.000ZM10.596,0.002C7.786,0.002,5.094,1.115,3.108,3.098C1.121,5.080,0.005,7.771,0.007,10.575C0.005,13.380,1.121,16.069,3.108,18.052C5.094,20.034,7.786,21.149,10.596,21.149C13.404,21.149,16.099,20.035,18.085,18.052C20.071,16.069,21.186,13.380,21.186,10.575C21.186,7.771,20.071,5.080,18.085,3.098C16.099,1.115,13.404,0.001,10.596,0.002ZL10.596,0.002ZL10.596,0.002ZM38.471,0.002C32.623,0.002,27.884,4.737,27.884,10.575C27.884,16.414,32.623,21.148,38.471,21.149C41.279,21.149,43.975,20.036,45.960,18.053C47.947,16.070,49.061,13.380,49.061,10.575C49.061,7.771,47.947,5.080,45.960,3.098C43.975,1.115,41.279,0.001,38.471,0.002ZL38.471,0.002ZL38.471,0.002ZM66.350,0.002C63.541,0.002,60.848,1.115,58.862,3.098C56.875,5.081,55.759,7.771,55.761,10.575C55.759,13.380,56.875,16.069,58.862,18.052C60.848,20.035,63.541,21.149,66.350,21.149C72.197,21.148,76.937,16.414,76.936,10.575C76.937,4.737,72.197,0.002,66.350,0.002ZL66.350,0.002ZL66.350,0.002ZM249.132,1.739C246.277,1.739,243.554,2.409,240.965,3.750C234.145,7.270,230.736,13.946,230.736,23.774L230.736,25.193L227.445,25.193C226.362,25.193,225.476,25.482,224.788,26.060C224.101,26.612,223.757,27.335,223.757,28.228C223.757,29.122,223.983,30.080,224.431,31.105C225.277,31.026,227.128,30.987,229.983,30.987L230.736,30.987L230.736,62.167C230.788,65.267,229.599,66.818,227.168,66.818C226.612,66.818,226.018,66.713,225.382,66.502C224.987,67.002,224.788,67.738,224.788,68.710C224.788,70.549,226.810,71.469,230.855,71.469L245.406,71.469C246.569,71.469,247.415,71.534,247.942,71.666C248.366,71.141,248.578,70.418,248.578,69.498C248.578,68.736,248.246,68.106,247.587,67.606C247.110,67.265,245.736,66.975,243.462,66.739C240.871,66.450,239.578,65.293,239.578,63.270L239.578,31.618C242.246,31.933,244.547,32.091,246.476,32.091C248.433,32.091,250.018,31.670,251.234,30.830C251.790,30.462,252.159,30.054,252.344,29.608C252.556,29.161,252.661,28.464,252.661,27.518C252.661,26.572,252.489,25.797,252.145,25.193L239.578,25.193L239.578,19.438C239.525,18.807,239.498,18.216,239.498,17.664C239.498,14.090,240.409,11.423,242.234,9.662C243.186,8.769,244.625,8.322,246.556,8.322C249.464,8.322,250.917,10.253,250.917,14.116C250.917,14.616,251.418,14.865,252.424,14.865C253.428,14.865,254.181,14.695,254.683,14.353C256.375,13.039,257.221,11.187,257.221,8.795C257.221,6.667,256.587,4.958,255.317,3.671C254.049,2.383,251.987,1.739,249.132,1.739ZL249.132,1.739ZL249.132,1.739ZM268.679,1.739C265.904,1.739,263.181,2.750,260.512,4.774C258.688,6.167,258.054,7.271,258.609,8.086C258.768,8.296,258.951,8.466,259.163,8.598C259.375,8.703,259.625,8.730,259.917,8.677C260.234,8.599,260.512,8.559,260.750,8.559L261.543,8.559C262.942,8.559,263.920,8.979,264.476,9.820C264.846,10.345,265.032,11.515,265.032,13.328L265.032,62.167C265.058,63.953,264.873,65.176,264.476,65.832C264.080,66.489,263.473,66.818,262.652,66.818C261.833,66.818,261.107,66.713,260.471,66.502C260.049,67.028,259.837,67.843,259.837,68.946C259.837,69.393,259.983,69.787,260.274,70.129C260.987,71.023,262.612,71.469,265.150,71.469L277.799,71.469C278.962,71.469,279.806,71.535,280.335,71.666C280.759,71.141,280.969,70.418,280.969,69.498C280.969,68.736,280.746,68.184,280.295,67.843C280.032,67.658,279.663,67.501,279.186,67.370C278.737,67.212,278.221,67.081,277.639,66.975C277.058,66.870,276.556,66.739,276.132,66.581C274.652,66.082,273.913,64.742,273.913,62.561L273.913,37.294C275.525,35.690,277.614,34.311,280.178,33.155C281.471,32.577,282.846,32.104,284.301,31.736C285.781,31.369,287.130,31.184,288.344,31.184C289.587,31.184,290.618,31.264,291.438,31.421C294.107,31.946,295.442,34.443,295.442,38.910L295.442,62.955C295.389,64.426,295.150,65.438,294.728,65.990C294.333,66.542,293.750,66.818,292.984,66.818C292.217,66.818,291.504,66.713,290.842,66.502C290.446,67.002,290.248,67.816,290.248,68.946C290.248,69.393,290.393,69.787,290.683,70.129C291.398,71.023,293.024,71.469,295.561,71.469L308.208,71.469C309.346,71.469,310.192,71.534,310.746,71.666C311.143,71.167,311.341,70.444,311.341,69.498C311.341,68.736,311.116,68.184,310.667,67.843C310.402,67.658,310.032,67.501,309.556,67.370C309.107,67.212,308.592,67.081,308.011,66.975C307.429,66.870,306.927,66.739,306.504,66.581C305.024,66.082,304.284,64.742,304.284,62.561L304.284,36.111C304.284,31.697,303.067,28.411,300.636,26.257C299.525,25.258,298.190,24.536,296.632,24.089C295.099,23.643,293.473,23.419,291.755,23.419C290.063,23.419,288.384,23.668,286.719,24.168C282.172,25.482,277.904,27.807,273.913,31.145L273.913,9.662C273.913,8.585,273.860,7.560,273.754,6.588C273.384,3.355,271.692,1.739,268.679,1.739ZL268.679,1.739ZL268.679,1.739ZM376.047,1.739C373.272,1.739,370.549,2.750,367.880,4.774C366.054,6.167,365.420,7.271,365.976,8.086C366.134,8.296,366.320,8.466,366.532,8.598C366.743,8.703,366.994,8.730,367.284,8.677C367.601,8.599,367.880,8.559,368.118,8.559L368.911,8.559C370.312,8.559,371.290,8.979,371.844,9.820C372.215,10.345,372.400,11.515,372.400,13.328L372.400,62.167C372.427,63.953,372.241,65.176,371.844,65.832C371.447,66.489,370.840,66.818,370.020,66.818C369.201,66.818,368.475,66.713,367.840,66.502C367.417,67.028,367.206,67.843,367.206,68.946C367.206,69.393,367.351,69.787,367.641,70.129C368.355,71.023,369.980,71.469,372.518,71.469L385.167,71.469C386.330,71.469,387.174,71.535,387.704,71.666C388.127,71.141,388.337,70.418,388.337,69.498C388.337,68.736,388.114,68.184,387.663,67.843C387.400,67.658,387.029,67.501,386.554,67.370C386.105,67.212,385.589,67.081,385.007,66.975C384.426,66.870,383.924,66.739,383.500,66.581C382.020,66.082,381.281,64.742,381.281,62.561L381.281,37.294C382.893,35.690,384.980,34.311,387.545,33.155C388.840,32.577,390.215,32.104,391.668,31.736C393.149,31.369,394.496,31.184,395.712,31.184C396.956,31.184,397.986,31.264,398.806,31.421C401.475,31.946,402.810,34.443,402.810,38.910L402.810,62.955C402.757,64.426,402.518,65.438,402.096,65.990C401.699,66.542,401.119,66.818,400.351,66.818C399.585,66.818,398.871,66.713,398.210,66.502C397.813,67.002,397.616,67.816,397.616,68.946C397.616,69.393,397.761,69.787,398.052,70.129C398.764,71.023,400.391,71.469,402.929,71.469L415.576,71.469C416.714,71.469,417.558,71.534,418.114,71.666C418.511,71.167,418.708,70.444,418.708,69.498C418.708,68.736,418.484,68.184,418.034,67.843C417.770,67.658,417.400,67.501,416.924,67.370C416.476,67.212,415.960,67.081,415.379,66.975C414.797,66.870,414.295,66.739,413.871,66.581C412.391,66.082,411.652,64.742,411.652,62.561L411.652,36.111C411.652,31.697,410.436,28.411,408.004,26.257C406.893,25.258,405.558,24.536,404.000,24.089C402.466,23.643,400.841,23.419,399.123,23.419C397.431,23.419,395.753,23.668,394.087,24.168C389.541,25.482,385.272,27.807,381.281,31.145L381.281,9.662C381.281,8.585,381.228,7.560,381.121,6.588C380.752,3.355,379.060,1.739,376.047,1.739ZL376.047,1.739ZL376.047,1.739ZM146.681,10.293C140.364,10.293,135.210,11.685,131.217,14.471C127.069,17.361,124.994,21.212,124.994,26.021C124.994,30.725,126.632,34.679,129.909,37.885C131.416,39.357,133.148,40.645,135.103,41.748C137.085,42.852,139.835,44.140,143.351,45.611C146.891,47.083,149.734,48.607,151.875,50.184C153.275,51.235,154.400,52.378,155.245,53.613C156.091,54.848,156.514,56.254,156.514,57.831C156.514,59.381,156.210,60.734,155.601,61.891C153.857,65.201,150.435,66.857,145.333,66.857C140.893,66.857,137.429,65.819,134.945,63.743C132.487,61.667,131.087,58.356,130.743,53.810C130.478,52.812,129.500,52.312,127.808,52.312C126.936,52.312,126.248,52.614,125.746,53.219C124.266,55.768,123.527,58.514,123.527,61.457C123.527,62.929,123.830,64.177,124.438,65.202C125.628,67.225,127.623,68.789,130.424,69.892C134.232,71.443,138.619,72.218,143.589,72.218C149.853,72.218,155.060,70.772,159.210,67.882C163.650,64.781,165.871,60.696,165.871,55.623C165.871,50.893,163.980,46.925,160.201,43.719C158.484,42.247,156.500,40.946,154.254,39.817C152.034,38.660,149.721,37.531,147.315,36.427L142.360,34.101C136.650,31.368,133.795,28.070,133.795,24.207C133.795,21.659,134.759,19.608,136.690,18.058C137.641,17.295,138.831,16.692,140.257,16.245C141.686,15.798,143.389,15.575,145.373,15.575C147.355,15.575,149.087,15.838,150.567,16.363C154.875,17.887,157.029,21.659,157.029,27.676C157.029,28.360,157.730,28.701,159.130,28.701C160.558,28.701,161.563,28.346,162.143,27.637C162.487,27.216,162.832,26.296,163.174,24.877C163.545,23.458,163.730,21.790,163.730,19.871C163.730,17.953,163.279,16.402,162.382,15.220C159.922,11.935,154.690,10.293,146.681,10.293ZL146.681,10.293ZL146.681,10.293ZM194.061,23.419C189.779,23.419,186.065,24.194,182.920,25.745C181.308,26.506,180.025,27.492,179.074,28.701C178.149,29.883,177.686,31.276,177.686,32.879C177.686,34.456,178.136,35.756,179.034,36.782C179.457,37.281,179.947,37.676,180.500,37.964C181.083,38.253,181.995,38.398,183.237,38.398C184.505,38.398,185.404,38.187,185.933,37.767C185.880,37.294,185.866,36.702,185.893,35.993C186.079,31.420,189.382,29.135,195.806,29.135C198.608,29.135,200.590,29.949,201.753,31.578C202.784,33.023,203.299,35.507,203.299,39.028L203.299,41.985C203.299,42.931,203.286,43.903,203.259,44.902L198.304,44.902C191.192,44.902,185.681,46.005,181.770,48.213C177.435,50.630,175.268,54.257,175.268,59.092C175.268,62.981,176.549,66.148,179.114,68.592C181.650,71.009,185.034,72.218,189.264,72.218C194.735,72.218,199.400,70.300,203.259,66.463C203.418,67.462,203.696,68.315,204.092,69.025C205.995,72.651,209.576,73.230,214.837,70.760C215.788,70.313,216.634,69.801,217.373,69.222C218.141,68.618,218.657,68.053,218.920,67.527C219.212,67.002,219.357,66.581,219.357,66.266C219.357,65.924,219.212,65.543,218.920,65.123C218.657,64.676,218.340,64.519,217.969,64.650L216.859,65.162C216.436,65.372,215.880,65.478,215.194,65.478C214.533,65.478,213.965,65.320,213.489,65.005C213.040,64.689,212.643,64.071,212.299,63.152C211.982,62.232,211.824,60.051,211.824,56.609L212.219,37.688C212.219,33.616,211.096,30.370,208.850,27.952C207.581,26.586,205.864,25.494,203.696,24.680C201.554,23.839,198.342,23.419,194.061,23.419ZL194.061,23.419ZL194.061,23.419ZM335.565,23.419C331.284,23.419,327.570,24.194,324.424,25.745C322.812,26.506,321.531,27.492,320.579,28.701C319.654,29.883,319.192,31.276,319.192,32.879C319.192,34.456,319.639,35.756,320.540,36.782C320.962,37.281,321.451,37.676,322.007,37.964C322.589,38.253,323.500,38.398,324.741,38.398C326.011,38.398,326.909,38.187,327.438,37.767C327.386,37.294,327.373,36.702,327.399,35.993C327.583,31.420,330.888,29.135,337.311,29.135C340.112,29.135,342.094,29.949,343.257,31.578C344.288,33.023,344.804,35.507,344.804,39.028L344.804,41.985C344.804,42.931,344.791,43.903,344.764,44.902L339.808,44.902C332.699,44.902,327.187,46.005,323.275,48.213C318.940,50.630,316.773,54.257,316.773,59.092C316.773,62.981,318.054,66.148,320.619,68.592C323.156,71.009,326.540,72.218,330.768,72.218C336.239,72.218,340.904,70.300,344.764,66.463C344.922,67.462,345.201,68.315,345.596,69.025C347.500,72.651,351.082,73.230,356.342,70.760C357.293,70.313,358.139,69.801,358.880,69.222C359.645,68.618,360.161,68.053,360.426,67.527C360.717,67.002,360.862,66.581,360.862,66.266C360.862,65.924,360.717,65.543,360.426,65.123C360.161,64.676,359.844,64.519,359.474,64.650L358.364,65.162C357.940,65.372,357.386,65.478,356.699,65.478C356.038,65.478,355.469,65.320,354.994,65.005C354.545,64.689,354.148,64.071,353.804,63.152C353.487,62.232,353.329,60.051,353.329,56.609L353.725,37.688C353.725,33.616,352.601,30.370,350.355,27.952C349.085,26.586,347.369,25.494,345.201,24.680C343.060,23.839,339.848,23.419,335.565,23.419ZL335.565,23.419ZL335.565,23.419ZM6.755,27.724C3.014,27.724,0.002,30.727,0.002,34.461L0.002,67.260C0.002,70.994,3.014,73.998,6.755,73.998L70.188,73.998C73.928,73.998,76.936,70.994,76.936,67.260L76.936,34.461C76.936,30.727,73.928,27.724,70.188,27.724L6.755,27.724ZL6.755,27.724ZL6.755,27.724ZM203.219,50.026C203.167,53.758,203.141,57.515,203.141,61.299C199.995,63.875,196.533,65.162,192.753,65.162C190.083,65.162,188.034,64.571,186.607,63.388C185.179,62.179,184.466,60.577,184.466,58.580C184.466,56.556,184.875,55.045,185.695,54.046C186.197,53.443,186.884,52.917,187.757,52.470C188.629,52.023,190.043,51.563,191.998,51.090C193.982,50.591,197.721,50.236,203.219,50.026ZL203.219,50.026ZL203.219,50.026ZM344.725,50.026C344.672,53.758,344.645,57.515,344.645,61.299C341.500,63.875,338.036,65.162,334.257,65.162C331.587,65.162,329.540,64.571,328.112,63.388C326.686,62.179,325.971,60.577,325.971,58.580C325.971,56.556,326.380,55.045,327.201,54.046C327.703,53.443,328.389,52.917,329.262,52.470C330.134,52.023,331.549,51.563,333.505,51.090C335.487,50.591,339.226,50.236,344.725,50.026ZL344.725,50.026ZL344.725,50.026Z" style="stroke-width: 248.24; fill: rgb(166, 53, 113); fill-opacity: 1;"/></g></g></g></g></g></g></g></svg>